<svg xmlns="http://www.w3.org/2000/svg" preserveAspectRatio="xMidYMid" viewBox="0 0 529.167 264.583"><defs><linearGradient id="a" x1="0" x2="1" y1="0" y2="0" gradientTransform="rotate(-90 780 300) scale(1080)" gradientUnits="userSpaceOnUse"><stop offset="0" stop-color="#f300ee"/><stop offset=".44" stop-color="#f300ee"/><stop offset=".57" stop-color="#4930ff"/><stop offset="1" stop-color="#4930ff"/></linearGradient><linearGradient id="b" x1="0" x2="1" y1="0" y2="0" gradientTransform="rotate(90 98.82 381.18) scale(515.277)" gradientUnits="userSpaceOnUse"><stop offset="0" stop-color="#f300ee"/><stop offset="1" stop-color="#4930ff"/></linearGradient><linearGradient id="c" x1="0" x2="1" y1="0" y2="0" gradientTransform="rotate(90 82.91 473.32) scale(146.711)" gradientUnits="userSpaceOnUse"><stop offset="0" stop-color="#f300ee"/><stop offset=".22" stop-color="#f300ee"/><stop offset="1" stop-color="#4930ff"/></linearGradient></defs><g fill-rule="evenodd" stroke-linejoin="round" stroke-miterlimit="2" clip-rule="evenodd"><path fill="url(#a)" d="M0 0h960v1080H0z" transform="translate(-1440.86 -1353.02) scale(2.83361)"/><path fill="url(#b)" fill-rule="nonzero" d="M496.63 282.36a10 10 0 0 0-7.08 2.93L225.3 549.55a10 10 0 0 0 0 14.15l231.01 231a10 10 0 0 0 14.15 0L734.7 530.46a10 10 0 0 0 2.93-7.08v-231a10 10 0 0 0-10-10h-231zM456.3 738.13L281.87 563.7a10 10 0 0 1 0-14.15L506.12 325.3a10 10 0 0 1 7.07-2.93h174.44a10 10 0 0 1 10 10v174.44a10 10 0 0 1-2.93 7.07L470.45 738.13a9.97 9.97 0 0 1-14.15 0z" transform="translate(-1440.86 -1353.02) scale(2.83361)"/><path fill="url(#c)" fill-rule="nonzero" d="M530.2 395.22c-.85.34-1.7.6-2.54.98a85.72 85.72 0 0 0-15.06 8.88c-2.67 1.99-5.36 3.97-7.8 6.37-.29.26-.56.59-.84.85a73.38 73.38 0 0 0 .4 103.34 73.38 73.38 0 0 0 103.34.4c.26-.28.6-.55.85-.84 2.4-2.44 4.38-5.13 6.37-7.8a85.9 85.9 0 0 0 8.88-15.06c.38-.85.64-1.7.98-2.54 9.94-26.19 4.5-56.9-16.6-77.99a72.88 72.88 0 0 0-51.72-21.4c-8.91 0-17.82 1.6-26.26 4.81zm-8.05 68.51a34.16 34.16 0 0 1 34.12-34.12c9.41 0 17.94 3.83 24.11 10 6.17 6.18 10 14.7 10.01 24.12a34.16 34.16 0 0 1-34.12 34.12 34.2 34.2 0 0 1-34.12-34.12z" transform="translate(-1440.86 -1353.02) scale(2.83361)"/></g></svg>